<mxfile host="Electron" agent="Mozilla/5.0 (Windows NT 10.0; Win64; x64) AppleWebKit/537.36 (KHTML, like Gecko) draw.io/26.0.4 Chrome/128.0.6613.186 Electron/32.2.5 Safari/537.36" version="26.0.4">
  <diagram name="Page-1" id="m24HWaA1_6qQFELKPtkV">
    <mxGraphModel dx="864" dy="1616" grid="1" gridSize="10" guides="1" tooltips="1" connect="1" arrows="1" fold="1" page="1" pageScale="1" pageWidth="850" pageHeight="1100" math="0" shadow="0">
      <root>
        <mxCell id="0" />
        <mxCell id="1" parent="0" />
        <mxCell id="_gRynJ7ZUwvJjiZ-hrxs-4" style="edgeStyle=orthogonalEdgeStyle;rounded=0;orthogonalLoop=1;jettySize=auto;html=1;" edge="1" parent="1" source="_gRynJ7ZUwvJjiZ-hrxs-1" target="_gRynJ7ZUwvJjiZ-hrxs-3">
          <mxGeometry relative="1" as="geometry" />
        </mxCell>
        <mxCell id="_gRynJ7ZUwvJjiZ-hrxs-1" value="درخواست به قسمت ثبت نام" style="ellipse;whiteSpace=wrap;html=1;strokeColor=default;" vertex="1" parent="1">
          <mxGeometry y="100" width="120" height="80" as="geometry" />
        </mxCell>
        <mxCell id="_gRynJ7ZUwvJjiZ-hrxs-21" style="edgeStyle=orthogonalEdgeStyle;rounded=0;orthogonalLoop=1;jettySize=auto;html=1;" edge="1" parent="1" source="_gRynJ7ZUwvJjiZ-hrxs-3" target="_gRynJ7ZUwvJjiZ-hrxs-11">
          <mxGeometry relative="1" as="geometry" />
        </mxCell>
        <mxCell id="_gRynJ7ZUwvJjiZ-hrxs-3" value="اطلاعات بگیر&amp;nbsp;&lt;div&gt;ایمیل&amp;nbsp;&lt;/div&gt;" style="shape=parallelogram;perimeter=parallelogramPerimeter;whiteSpace=wrap;html=1;fixedSize=1;" vertex="1" parent="1">
          <mxGeometry x="110" y="320" width="120" height="60" as="geometry" />
        </mxCell>
        <mxCell id="_gRynJ7ZUwvJjiZ-hrxs-9" style="edgeStyle=orthogonalEdgeStyle;rounded=0;orthogonalLoop=1;jettySize=auto;html=1;" edge="1" parent="1" source="_gRynJ7ZUwvJjiZ-hrxs-11" target="_gRynJ7ZUwvJjiZ-hrxs-8">
          <mxGeometry relative="1" as="geometry">
            <mxPoint x="530" y="330" as="sourcePoint" />
          </mxGeometry>
        </mxCell>
        <mxCell id="_gRynJ7ZUwvJjiZ-hrxs-16" value="بله" style="edgeLabel;html=1;align=center;verticalAlign=middle;resizable=0;points=[];" vertex="1" connectable="0" parent="_gRynJ7ZUwvJjiZ-hrxs-9">
          <mxGeometry x="-0.2762" relative="1" as="geometry">
            <mxPoint as="offset" />
          </mxGeometry>
        </mxCell>
        <mxCell id="_gRynJ7ZUwvJjiZ-hrxs-8" value="ایمیل وجود دارد" style="shape=document;whiteSpace=wrap;html=1;boundedLbl=1;" vertex="1" parent="1">
          <mxGeometry x="270" y="70" width="120" height="80" as="geometry" />
        </mxCell>
        <mxCell id="_gRynJ7ZUwvJjiZ-hrxs-12" value="" style="edgeStyle=orthogonalEdgeStyle;rounded=0;orthogonalLoop=1;jettySize=auto;html=1;" edge="1" parent="1" target="_gRynJ7ZUwvJjiZ-hrxs-11">
          <mxGeometry relative="1" as="geometry">
            <mxPoint x="530" y="330" as="sourcePoint" />
            <mxPoint x="450" y="160" as="targetPoint" />
          </mxGeometry>
        </mxCell>
        <mxCell id="_gRynJ7ZUwvJjiZ-hrxs-13" value="بله" style="edgeLabel;html=1;align=center;verticalAlign=middle;resizable=0;points=[];" vertex="1" connectable="0" parent="_gRynJ7ZUwvJjiZ-hrxs-12">
          <mxGeometry x="-0.448" y="3" relative="1" as="geometry">
            <mxPoint as="offset" />
          </mxGeometry>
        </mxCell>
        <mxCell id="_gRynJ7ZUwvJjiZ-hrxs-22" style="edgeStyle=orthogonalEdgeStyle;rounded=0;orthogonalLoop=1;jettySize=auto;html=1;exitX=0.5;exitY=1;exitDx=0;exitDy=0;entryX=0;entryY=0.5;entryDx=0;entryDy=0;" edge="1" parent="1" source="_gRynJ7ZUwvJjiZ-hrxs-11" target="_gRynJ7ZUwvJjiZ-hrxs-14">
          <mxGeometry relative="1" as="geometry" />
        </mxCell>
        <mxCell id="_gRynJ7ZUwvJjiZ-hrxs-23" value="خیر" style="edgeLabel;html=1;align=center;verticalAlign=middle;resizable=0;points=[];" vertex="1" connectable="0" parent="_gRynJ7ZUwvJjiZ-hrxs-22">
          <mxGeometry x="-0.4105" y="1" relative="1" as="geometry">
            <mxPoint as="offset" />
          </mxGeometry>
        </mxCell>
        <mxCell id="_gRynJ7ZUwvJjiZ-hrxs-11" value="ایمیل وجود دارد؟" style="rhombus;whiteSpace=wrap;html=1;" vertex="1" parent="1">
          <mxGeometry x="480" y="300" width="80" height="80" as="geometry" />
        </mxCell>
        <mxCell id="_gRynJ7ZUwvJjiZ-hrxs-19" style="edgeStyle=orthogonalEdgeStyle;rounded=0;orthogonalLoop=1;jettySize=auto;html=1;" edge="1" parent="1" source="_gRynJ7ZUwvJjiZ-hrxs-14" target="_gRynJ7ZUwvJjiZ-hrxs-18">
          <mxGeometry relative="1" as="geometry" />
        </mxCell>
        <mxCell id="_gRynJ7ZUwvJjiZ-hrxs-14" value="یک آبجکت بساز و توکن ارسال کن به ایمیل" style="shape=document;whiteSpace=wrap;html=1;boundedLbl=1;" vertex="1" parent="1">
          <mxGeometry x="570" y="480" width="120" height="80" as="geometry" />
        </mxCell>
        <mxCell id="_gRynJ7ZUwvJjiZ-hrxs-25" style="edgeStyle=orthogonalEdgeStyle;rounded=0;orthogonalLoop=1;jettySize=auto;html=1;" edge="1" parent="1" source="_gRynJ7ZUwvJjiZ-hrxs-18" target="_gRynJ7ZUwvJjiZ-hrxs-24">
          <mxGeometry relative="1" as="geometry" />
        </mxCell>
        <mxCell id="_gRynJ7ZUwvJjiZ-hrxs-18" value="توکن را بگیر" style="shape=parallelogram;perimeter=parallelogramPerimeter;whiteSpace=wrap;html=1;fixedSize=1;" vertex="1" parent="1">
          <mxGeometry x="610" y="310" width="120" height="60" as="geometry" />
        </mxCell>
        <mxCell id="_gRynJ7ZUwvJjiZ-hrxs-28" style="edgeStyle=orthogonalEdgeStyle;rounded=0;orthogonalLoop=1;jettySize=auto;html=1;" edge="1" parent="1" source="_gRynJ7ZUwvJjiZ-hrxs-24" target="_gRynJ7ZUwvJjiZ-hrxs-27">
          <mxGeometry relative="1" as="geometry" />
        </mxCell>
        <mxCell id="_gRynJ7ZUwvJjiZ-hrxs-29" value="بله" style="edgeLabel;html=1;align=center;verticalAlign=middle;resizable=0;points=[];" vertex="1" connectable="0" parent="_gRynJ7ZUwvJjiZ-hrxs-28">
          <mxGeometry x="-0.2" relative="1" as="geometry">
            <mxPoint as="offset" />
          </mxGeometry>
        </mxCell>
        <mxCell id="_gRynJ7ZUwvJjiZ-hrxs-24" value="توکن صیحیح است؟" style="rhombus;whiteSpace=wrap;html=1;" vertex="1" parent="1">
          <mxGeometry x="640" y="150" width="80" height="80" as="geometry" />
        </mxCell>
        <mxCell id="_gRynJ7ZUwvJjiZ-hrxs-32" style="edgeStyle=orthogonalEdgeStyle;rounded=0;orthogonalLoop=1;jettySize=auto;html=1;entryX=1;entryY=0.25;entryDx=0;entryDy=0;" edge="1" parent="1" source="_gRynJ7ZUwvJjiZ-hrxs-27" target="_gRynJ7ZUwvJjiZ-hrxs-30">
          <mxGeometry relative="1" as="geometry" />
        </mxCell>
        <mxCell id="_gRynJ7ZUwvJjiZ-hrxs-27" value="بقیه اطلاعات را بگیر" style="shape=parallelogram;perimeter=parallelogramPerimeter;whiteSpace=wrap;html=1;fixedSize=1;" vertex="1" parent="1">
          <mxGeometry x="490" y="80" width="120" height="60" as="geometry" />
        </mxCell>
        <mxCell id="_gRynJ7ZUwvJjiZ-hrxs-37" style="edgeStyle=orthogonalEdgeStyle;rounded=0;orthogonalLoop=1;jettySize=auto;html=1;" edge="1" parent="1" source="_gRynJ7ZUwvJjiZ-hrxs-30" target="_gRynJ7ZUwvJjiZ-hrxs-36">
          <mxGeometry relative="1" as="geometry" />
        </mxCell>
        <mxCell id="_gRynJ7ZUwvJjiZ-hrxs-30" value="کاربر را ثبت نام کن" style="shape=document;whiteSpace=wrap;html=1;boundedLbl=1;" vertex="1" parent="1">
          <mxGeometry x="380" y="-20" width="120" height="80" as="geometry" />
        </mxCell>
        <mxCell id="_gRynJ7ZUwvJjiZ-hrxs-33" value="خطا بده" style="shape=document;whiteSpace=wrap;html=1;boundedLbl=1;" vertex="1" parent="1">
          <mxGeometry x="700" y="40" width="120" height="80" as="geometry" />
        </mxCell>
        <mxCell id="_gRynJ7ZUwvJjiZ-hrxs-34" style="edgeStyle=orthogonalEdgeStyle;rounded=0;orthogonalLoop=1;jettySize=auto;html=1;entryX=0.833;entryY=0.75;entryDx=0;entryDy=0;entryPerimeter=0;" edge="1" parent="1" source="_gRynJ7ZUwvJjiZ-hrxs-24" target="_gRynJ7ZUwvJjiZ-hrxs-33">
          <mxGeometry relative="1" as="geometry" />
        </mxCell>
        <mxCell id="_gRynJ7ZUwvJjiZ-hrxs-35" value="خیر" style="edgeLabel;html=1;align=center;verticalAlign=middle;resizable=0;points=[];" vertex="1" connectable="0" parent="_gRynJ7ZUwvJjiZ-hrxs-34">
          <mxGeometry x="-0.3684" relative="1" as="geometry">
            <mxPoint as="offset" />
          </mxGeometry>
        </mxCell>
        <mxCell id="_gRynJ7ZUwvJjiZ-hrxs-36" value="تمام" style="ellipse;whiteSpace=wrap;html=1;aspect=fixed;" vertex="1" parent="1">
          <mxGeometry x="100" y="-50" width="80" height="80" as="geometry" />
        </mxCell>
      </root>
    </mxGraphModel>
  </diagram>
</mxfile>
